<svg xmlns="http://www.w3.org/2000/svg" viewBox="0 0 800 300" width="800" height="300">
  <!-- Sky -->
  <rect width="800" height="220" fill="#b3d9f2"/>

  <!-- Ground -->
  <rect y="220" width="800" height="80" fill="#81c784"/>

  <!-- Player (stick figure) -->
  <g id="player">
    <!-- Head -->
    <circle cx="100" cy="160" r="15" fill="#1976d2" stroke="#0d47a1" stroke-width="2"/>
    <!-- Body -->
    <line x1="100" y1="175" x2="100" y2="210" stroke="#0d47a1" stroke-width="3" stroke-linecap="round"/>
    <!-- Throwing arm (extended) -->
    <line x1="100" y1="185" x2="140" y2="170" stroke="#0d47a1" stroke-width="3" stroke-linecap="round"/>
    <!-- Other arm -->
    <line x1="100" y1="185" x2="70" y2="195" stroke="#0d47a1" stroke-width="3" stroke-linecap="round"/>
    <!-- Legs -->
    <line x1="100" y1="210" x2="85" y2="220" stroke="#0d47a1" stroke-width="3" stroke-linecap="round"/>
    <line x1="100" y1="210" x2="115" y2="220" stroke="#0d47a1" stroke-width="3" stroke-linecap="round"/>
  </g>

  <!-- Disc being thrown -->
  <ellipse cx="180" cy="155" rx="20" ry="6" fill="#ff9800" stroke="#f57c00" stroke-width="2"/>

  <!-- Flight path (dashed arc) -->
  <path d="M 210 145 Q 400 80, 633 160"
        stroke="#1976d2"
        stroke-width="2"
        stroke-dasharray="8,3"
        fill="none"
        opacity="0.6"/>

  <!-- Arrow indicating direction -->
  <path d="M 632 149 L 650 165 L 625 165 L 633 160 Z"
        fill="#1976d2"
        stroke="#1976d2"
        stroke-width="2"
        opacity="0.7"/>

  <!-- Disc golf basket (using basket-icon.svg) -->
  <g id="basket" transform="translate(650, 140) scale(0.8)">
    <path
       d="m 384.98,216.891 3.516,47.304 h 50.5 l -4.707,-47.304 H 384.98 m -124.792,47.304 h 28.054 l -2.812,-47.304 h -25.242 v 47.304 m -76.11,-47.304 -2.812,47.304 h 28.062 v -47.304 h -25.25 M 30.5156,264.195 h 50.5 l 3.5157,-47.304 H 35.2148 l -4.6992,47.304 M 74.75,348.422 79.5273,284.195 H 28.5195 l -6.3867,64.227 H 74.75 m 86.484,-84.227 2.809,-47.304 h -59.457 l -3.516,47.304 h 60.164 m -43.597,84.227 c 13.136,-19.414 27.136,-36.016 41.523,-49.305 l 0.887,-14.922 H 99.582 l -4.7773,64.227 h 22.8323 m -66.9339,287.25 h 39.3477 c 1.918,-69.055 22.9332,-183.387 56.1372,-267.25 h -20.809 c -40.5548,63.965 -72.7931,158.18 -74.6759,267.25 m -12.6601,93.84 h 393.422 v -73.84 H 38.043 v 73.84 m 304.762,-361.09 h -20.508 c 33.484,84.406 55.125,199.504 57.148,267.25 h 39.356 C 416.848,528.824 383.957,433.418 342.805,368.422 m -186.332,-23.992 1.105,-18.731 c -6.265,6.875 -12.469,14.461 -18.562,22.723 h 15.648 c 0.602,-1.336 1.195,-2.684 1.809,-3.992 m -6.606,291.242 c 1.383,-42.199 9.86,-174.637 31.504,-267.25 h -6.297 l -0.094,1.562 c -0.328,5.52 -5.136,9.864 -10.57,9.391 -1.347,-0.078 -2.605,-0.441 -3.75,-0.992 -29.668,76.855 -51.461,182.824 -53.301,257.289 h 42.508 m 59.461,-267.25 h -10.48 c -4.071,17.23 -8.246,38.242 -12.375,63.898 -11.789,73.184 -18.512,156.133 -19.391,203.352 h 42.246 v -267.25 m 61.485,0 h -10.625 v 267.25 h 42.273 c -1.035,-79.574 -14.09,-192.43 -31.648,-267.25 m 37.324,10.152 c -0.969,0.379 -1.953,0.739 -3.039,0.801 -5.692,0.414 -10.254,-3.875 -10.575,-9.391 l -0.089,-1.562 h -5.711 c 21.543,92.055 29.707,223.48 30.937,267.25 h 42.481 c -2.004,-69.067 -23.887,-178.02 -54.004,-257.098 m 5.058,-31.527 0.614,1.375 h 15.371 c -5.645,-7.695 -11.375,-14.832 -17.176,-21.348 l 1.191,19.973 M 209.328,331.031 c -1.738,5.125 -3.519,10.907 -5.332,17.391 h 5.332 v -17.391 m 50.86,-1.152 v 18.543 h 5.566 c -1.828,-6.66 -3.684,-12.844 -5.566,-18.543 m 32.722,12.988 c -9.238,-19.23 -18.992,-35.117 -29.004,-46.066 7.461,13.117 14.016,30.89 19.746,51.621 h 9.59 l -0.332,-5.555 m -116.648,5.555 h 10.187 c 5.895,-21.426 12.629,-39.813 20.317,-53.047 -10.34,10.695 -20.469,26.594 -30.09,46.094 l -0.414,6.953 m 192.187,-84.227 -3.515,-47.304 h -59.473 l 2.812,47.304 h 60.176 m 6.258,84.227 -4.773,-64.227 h -60.469 l 0.965,16.328 c 13.761,13.055 27.187,29.207 39.875,47.899 h 24.402 m 72.656,0 -6.386,-64.227 H 389.98 l 4.778,64.227 h 52.605 m 13.125,30.922 c -5.39,0.504 -10.379,-3.465 -10.937,-8.957 l -0.196,-1.965 h -53.113 l 0.02,0.23 c 0.41,5.508 -3.723,10.309 -9.231,10.711 -5.664,0.52 -10.301,-3.722 -10.711,-9.226 l -0.129,-1.715 H 363.02 c 40.937,68.898 71.218,164.844 73.085,267.25 h 15.36 v 113.84 H 18.043 V 635.672 H 33.3906 C 35.1914,532.137 64.6445,436.773 105.008,368.422 H 93.3164 l -0.125,1.715 c -0.418,5.508 -5.1797,9.652 -10.7148,9.226 -5.5078,-0.41 -9.6368,-5.203 -9.2305,-10.711 l 0.0156,-0.23 H 20.1484 l -0.1953,1.965 c -0.5468,5.492 -5.4218,9.562 -10.94529,8.957 -5.49218,-0.547 -9.503904,-5.442 -8.9570287,-10.942 L 17.1094,196.891 H 209.328 V 0.00390625 h 50.86 V 196.891 h 192.207 l 17.058,171.511 c 0.547,5.5 -3.465,10.395 -8.965,10.942"
       fill="#231f20"
       transform="matrix(0.13333333,0,0,-0.13333333,0,99.933333)" />
  </g>

  <!-- Distance indicator -->
  <text x="400" y="270" font-family="Arial, sans-serif" font-size="18" fill="#2e7d32" text-anchor="middle" font-weight="bold">
    Throw the disc into the basket
  </text>

  <!-- Start marker -->
  <text x="100" y="250" font-family="Arial, sans-serif" font-size="14" fill="#1565c0" text-anchor="middle" font-weight="bold">
    Tee
  </text>

  <!-- Goal marker -->
  <text x="680" y="250" font-family="Arial, sans-serif" font-size="14" fill="#1565c0" text-anchor="middle" font-weight="bold">
    Basket
  </text>
</svg>
